<svg xmlns="http://www.w3.org/2000/svg" xmlns:xlink="http://www.w3.org/1999/xlink" width="2000" zoomAndPan="magnify" viewBox="0 0 1500 1499.999933" height="2000" preserveAspectRatio="xMidYMid meet" version="1.0"><path fill="#2a7221" d="M 1143.75 0 L 356.25 0 C 350.421875 0.0078125 344.597656 0.15625 338.777344 0.449219 C 332.953125 0.742188 327.144531 1.175781 321.34375 1.753906 C 315.542969 2.328125 309.761719 3.046875 303.996094 3.910156 C 298.234375 4.769531 292.492188 5.769531 286.777344 6.914062 C 281.0625 8.054688 275.378906 9.335938 269.726562 10.757812 C 264.070312 12.175781 258.457031 13.734375 252.882812 15.429688 C 247.304688 17.125 241.773438 18.957031 236.285156 20.925781 C 230.800781 22.890625 225.367188 24.992188 219.980469 27.226562 C 214.597656 29.460938 209.273438 31.824219 204.003906 34.316406 C 198.738281 36.8125 193.535156 39.433594 188.394531 42.183594 C 183.253906 44.933594 178.1875 47.808594 173.1875 50.808594 C 168.191406 53.804688 163.269531 56.921875 158.421875 60.164062 C 153.578125 63.402344 148.816406 66.757812 144.132812 70.230469 C 139.453125 73.703125 134.859375 77.289062 130.355469 80.988281 C 125.851562 84.6875 121.441406 88.492188 117.121094 92.40625 C 112.804688 96.324219 108.582031 100.339844 104.460938 104.460938 C 100.339844 108.582031 96.324219 112.804688 92.40625 117.121094 C 88.492188 121.441406 84.6875 125.851562 80.988281 130.355469 C 77.289062 134.859375 73.707031 139.453125 70.230469 144.132812 C 66.757812 148.816406 63.402344 153.578125 60.164062 158.421875 C 56.921875 163.269531 53.804688 168.191406 50.808594 173.1875 C 47.808594 178.1875 44.933594 183.253906 42.183594 188.394531 C 39.433594 193.535156 36.8125 198.738281 34.316406 204.003906 C 31.824219 209.273438 29.460938 214.597656 27.226562 219.980469 C 24.992188 225.367188 22.890625 230.800781 20.925781 236.285156 C 18.957031 241.773438 17.125 247.304688 15.429688 252.882812 C 13.734375 258.457031 12.175781 264.070312 10.757812 269.726562 C 9.335938 275.378906 8.054688 281.0625 6.914062 286.777344 C 5.769531 292.492188 4.769531 298.234375 3.910156 303.996094 C 3.046875 309.761719 2.328125 315.542969 1.753906 321.34375 C 1.175781 327.144531 0.742188 332.953125 0.449219 338.777344 C 0.15625 344.597656 0.0078125 350.421875 0 356.25 L 0 1143.75 C 0.0078125 1149.578125 0.15625 1155.402344 0.449219 1161.222656 C 0.742188 1167.046875 1.175781 1172.855469 1.753906 1178.65625 C 2.328125 1184.457031 3.046875 1190.238281 3.910156 1196.003906 C 4.769531 1201.765625 5.769531 1207.507812 6.914062 1213.222656 C 8.054688 1218.9375 9.335938 1224.621094 10.757812 1230.273438 C 12.175781 1235.925781 13.734375 1241.542969 15.429688 1247.117188 C 17.125 1252.695312 18.957031 1258.226562 20.925781 1263.710938 C 22.890625 1269.199219 24.992188 1274.632812 27.226562 1280.019531 C 29.460938 1285.402344 31.824219 1290.726562 34.316406 1295.996094 C 36.8125 1301.261719 39.433594 1306.464844 42.183594 1311.605469 C 44.933594 1316.742188 47.808594 1321.8125 50.808594 1326.8125 C 53.804688 1331.808594 56.921875 1336.730469 60.164062 1341.574219 C 63.402344 1346.421875 66.757812 1351.183594 70.230469 1355.863281 C 73.707031 1360.546875 77.289062 1365.140625 80.988281 1369.644531 C 84.6875 1374.148438 88.492188 1378.558594 92.40625 1382.878906 C 96.324219 1387.195312 100.339844 1391.417969 104.460938 1395.539062 C 108.582031 1399.660156 112.804688 1403.675781 117.121094 1407.589844 C 121.441406 1411.507812 125.851562 1415.3125 130.355469 1419.011719 C 134.859375 1422.707031 139.453125 1426.292969 144.132812 1429.769531 C 148.816406 1433.242188 153.578125 1436.597656 158.421875 1439.835938 C 163.269531 1443.074219 168.191406 1446.195312 173.1875 1449.191406 C 178.1875 1452.191406 183.257812 1455.066406 188.394531 1457.816406 C 193.535156 1460.566406 198.738281 1463.1875 204.003906 1465.679688 C 209.273438 1468.175781 214.597656 1470.539062 219.980469 1472.773438 C 225.367188 1475.007812 230.800781 1477.105469 236.285156 1479.074219 C 241.773438 1481.042969 247.304688 1482.871094 252.882812 1484.570312 C 258.457031 1486.265625 264.070312 1487.824219 269.726562 1489.242188 C 275.378906 1490.664062 281.0625 1491.945312 286.777344 1493.085938 C 292.492188 1494.230469 298.234375 1495.230469 303.996094 1496.089844 C 309.761719 1496.953125 315.542969 1497.671875 321.34375 1498.246094 C 327.144531 1498.824219 332.953125 1499.257812 338.777344 1499.550781 C 344.597656 1499.84375 350.421875 1499.992188 356.25 1500 L 1143.75 1500 C 1149.578125 1499.992188 1155.402344 1499.84375 1161.222656 1499.550781 C 1167.046875 1499.257812 1172.855469 1498.824219 1178.65625 1498.246094 C 1184.457031 1497.671875 1190.238281 1496.953125 1196.003906 1496.089844 C 1201.765625 1495.230469 1207.507812 1494.230469 1213.222656 1493.085938 C 1218.9375 1491.945312 1224.621094 1490.664062 1230.273438 1489.242188 C 1235.929688 1487.824219 1241.542969 1486.265625 1247.117188 1484.570312 C 1252.695312 1482.871094 1258.226562 1481.042969 1263.714844 1479.074219 C 1269.199219 1477.109375 1274.632812 1475.007812 1280.019531 1472.773438 C 1285.402344 1470.539062 1290.726562 1468.175781 1295.996094 1465.679688 C 1301.261719 1463.1875 1306.464844 1460.566406 1311.605469 1457.816406 C 1316.742188 1455.066406 1321.8125 1452.191406 1326.8125 1449.191406 C 1331.808594 1446.195312 1336.730469 1443.078125 1341.578125 1439.835938 C 1346.421875 1436.597656 1351.183594 1433.242188 1355.867188 1429.769531 C 1360.546875 1426.292969 1365.140625 1422.710938 1369.644531 1419.011719 C 1374.148438 1415.3125 1378.558594 1411.507812 1382.878906 1407.59375 C 1387.195312 1403.675781 1391.417969 1399.660156 1395.539062 1395.539062 C 1399.660156 1391.417969 1403.675781 1387.195312 1407.59375 1382.878906 C 1411.507812 1378.558594 1415.3125 1374.148438 1419.011719 1369.644531 C 1422.710938 1365.140625 1426.292969 1360.546875 1429.769531 1355.867188 C 1433.242188 1351.183594 1436.597656 1346.421875 1439.835938 1341.574219 C 1443.078125 1336.730469 1446.195312 1331.808594 1449.191406 1326.8125 C 1452.191406 1321.8125 1455.066406 1316.742188 1457.816406 1311.605469 C 1460.566406 1306.464844 1463.1875 1301.261719 1465.679688 1295.996094 C 1468.175781 1290.726562 1470.539062 1285.402344 1472.773438 1280.019531 C 1475.007812 1274.632812 1477.109375 1269.199219 1479.074219 1263.710938 C 1481.042969 1258.226562 1482.875 1252.695312 1484.570312 1247.117188 C 1486.265625 1241.542969 1487.824219 1235.925781 1489.242188 1230.273438 C 1490.664062 1224.621094 1491.945312 1218.9375 1493.085938 1213.222656 C 1494.230469 1207.507812 1495.230469 1201.765625 1496.089844 1196.003906 C 1496.953125 1190.238281 1497.671875 1184.457031 1498.246094 1178.65625 C 1498.824219 1172.855469 1499.257812 1167.046875 1499.550781 1161.222656 C 1499.84375 1155.402344 1499.992188 1149.578125 1500 1143.75 L 1500 356.25 C 1499.992188 350.421875 1499.84375 344.597656 1499.550781 338.777344 C 1499.257812 332.953125 1498.824219 327.144531 1498.246094 321.34375 C 1497.671875 315.542969 1496.953125 309.761719 1496.089844 303.996094 C 1495.230469 298.234375 1494.230469 292.492188 1493.085938 286.777344 C 1491.945312 281.0625 1490.664062 275.378906 1489.242188 269.726562 C 1487.824219 264.070312 1486.265625 258.457031 1484.570312 252.882812 C 1482.875 247.304688 1481.042969 241.773438 1479.074219 236.285156 C 1477.109375 230.800781 1475.007812 225.367188 1472.773438 219.980469 C 1470.539062 214.597656 1468.175781 209.273438 1465.679688 204.003906 C 1463.1875 198.738281 1460.566406 193.535156 1457.816406 188.394531 C 1455.066406 183.253906 1452.191406 178.1875 1449.191406 173.1875 C 1446.195312 168.191406 1443.078125 163.269531 1439.835938 158.421875 C 1436.597656 153.578125 1433.242188 148.816406 1429.769531 144.132812 C 1426.292969 139.453125 1422.710938 134.859375 1419.011719 130.355469 C 1415.3125 125.851562 1411.507812 121.441406 1407.59375 117.121094 C 1403.675781 112.804688 1399.660156 108.582031 1395.539062 104.460938 C 1391.417969 100.339844 1387.195312 96.324219 1382.878906 92.40625 C 1378.558594 88.492188 1374.148438 84.6875 1369.644531 80.988281 C 1365.140625 77.289062 1360.546875 73.707031 1355.867188 70.230469 C 1351.183594 66.757812 1346.421875 63.402344 1341.578125 60.164062 C 1336.730469 56.921875 1331.808594 53.804688 1326.8125 50.808594 C 1321.8125 47.808594 1316.742188 44.933594 1311.605469 42.183594 C 1306.464844 39.433594 1301.261719 36.8125 1295.996094 34.316406 C 1290.726562 31.824219 1285.402344 29.460938 1280.019531 27.226562 C 1274.632812 24.992188 1269.199219 22.890625 1263.714844 20.925781 C 1258.226562 18.957031 1252.695312 17.125 1247.117188 15.429688 C 1241.542969 13.734375 1235.929688 12.175781 1230.273438 10.757812 C 1224.621094 9.335938 1218.9375 8.054688 1213.222656 6.914062 C 1207.507812 5.769531 1201.765625 4.769531 1196.003906 3.910156 C 1190.238281 3.046875 1184.457031 2.328125 1178.65625 1.753906 C 1172.855469 1.175781 1167.046875 0.742188 1161.222656 0.449219 C 1155.402344 0.15625 1149.578125 0.0078125 1143.75 0 Z M 974.796875 562.503906 C 965.355469 859.851562 534.199219 859.78125 524.796875 562.5 C 534.246094 265.144531 965.398438 265.21875 974.796875 562.503906 Z M 1050.203125 1162.5 L 449.796875 1162.5 C 448.570312 1162.5 447.34375 1162.441406 446.121094 1162.320312 C 444.898438 1162.199219 443.6875 1162.019531 442.480469 1161.78125 C 441.277344 1161.542969 440.085938 1161.242188 438.910156 1160.886719 C 437.738281 1160.53125 436.582031 1160.117188 435.445312 1159.648438 C 434.3125 1159.179688 433.203125 1158.652344 432.121094 1158.074219 C 431.035156 1157.496094 429.984375 1156.867188 428.960938 1156.183594 C 427.941406 1155.5 426.957031 1154.769531 426.007812 1153.992188 C 425.058594 1153.210938 424.148438 1152.386719 423.277344 1151.519531 C 422.410156 1150.652344 421.585938 1149.742188 420.808594 1148.792969 C 420.027344 1147.84375 419.296875 1146.855469 418.617188 1145.835938 C 417.933594 1144.816406 417.300781 1143.761719 416.722656 1142.679688 C 416.144531 1141.597656 415.621094 1140.488281 415.152344 1139.351562 C 414.679688 1138.21875 414.265625 1137.0625 413.910156 1135.886719 C 413.554688 1134.710938 413.257812 1133.519531 413.015625 1132.316406 C 412.777344 1131.113281 412.597656 1129.898438 412.476562 1128.675781 C 412.359375 1127.453125 412.296875 1126.226562 412.296875 1125 L 412.296875 1050 C 412.300781 1046.933594 412.382812 1043.867188 412.535156 1040.804688 C 412.6875 1037.738281 412.917969 1034.679688 413.222656 1031.628906 C 413.523438 1028.574219 413.902344 1025.53125 414.355469 1022.5 C 414.808594 1019.464844 415.335938 1016.445312 415.9375 1013.4375 C 416.539062 1010.425781 417.214844 1007.4375 417.960938 1004.460938 C 418.707031 1001.484375 419.527344 998.53125 420.421875 995.597656 C 421.3125 992.660156 422.277344 989.75 423.3125 986.863281 C 424.347656 983.976562 425.453125 981.113281 426.628906 978.28125 C 427.804688 975.449219 429.050781 972.644531 430.363281 969.871094 C 431.675781 967.101562 433.054688 964.363281 434.503906 961.65625 C 435.949219 958.953125 437.464844 956.285156 439.042969 953.652344 C 440.621094 951.023438 442.261719 948.433594 443.964844 945.882812 C 445.671875 943.332031 447.4375 940.824219 449.265625 938.363281 C 451.09375 935.898438 452.980469 933.480469 454.925781 931.109375 C 456.875 928.738281 458.875 926.417969 460.9375 924.144531 C 462.996094 921.871094 465.113281 919.652344 467.28125 917.480469 C 469.449219 915.3125 471.671875 913.199219 473.945312 911.136719 C 476.214844 909.078125 478.539062 907.074219 480.910156 905.128906 C 483.28125 903.179688 485.699219 901.292969 488.160156 899.464844 C 490.625 897.636719 493.132812 895.871094 495.679688 894.167969 C 498.230469 892.460938 500.820312 890.820312 503.453125 889.242188 C 506.082031 887.664062 508.75 886.152344 511.457031 884.703125 C 514.160156 883.257812 516.898438 881.878906 519.671875 880.5625 C 522.445312 879.25 525.246094 878.007812 528.078125 876.832031 C 530.914062 875.65625 533.773438 874.550781 536.660156 873.515625 C 539.546875 872.480469 542.460938 871.515625 545.394531 870.625 C 548.328125 869.730469 551.285156 868.910156 554.257812 868.164062 C 557.234375 867.414062 560.226562 866.742188 563.234375 866.140625 C 566.242188 865.539062 569.261719 865.011719 572.296875 864.558594 C 575.332031 864.105469 578.375 863.726562 581.425781 863.421875 C 584.480469 863.117188 587.539062 862.890625 590.601562 862.734375 C 593.664062 862.582031 596.730469 862.503906 599.796875 862.5 L 899.796875 862.5 C 902.867188 862.503906 905.933594 862.582031 908.996094 862.734375 C 912.058594 862.890625 915.117188 863.117188 918.167969 863.421875 C 921.222656 863.726562 924.265625 864.105469 927.300781 864.558594 C 930.332031 865.011719 933.355469 865.539062 936.363281 866.140625 C 939.371094 866.738281 942.363281 867.414062 945.335938 868.164062 C 948.3125 868.910156 951.265625 869.730469 954.203125 870.621094 C 957.136719 871.515625 960.046875 872.480469 962.9375 873.515625 C 965.824219 874.550781 968.683594 875.65625 971.515625 876.832031 C 974.351562 878.007812 977.152344 879.25 979.925781 880.5625 C 982.699219 881.878906 985.4375 883.257812 988.140625 884.703125 C 990.847656 886.152344 993.515625 887.664062 996.144531 889.242188 C 998.773438 890.820312 1001.367188 892.460938 1003.914062 894.167969 C 1006.464844 895.871094 1008.972656 897.636719 1011.4375 899.464844 C 1013.898438 901.292969 1016.316406 903.179688 1018.6875 905.128906 C 1021.058594 907.074219 1023.378906 909.078125 1025.652344 911.136719 C 1027.925781 913.199219 1030.148438 915.3125 1032.316406 917.480469 C 1034.484375 919.652344 1036.601562 921.871094 1038.660156 924.144531 C 1040.722656 926.417969 1042.722656 928.738281 1044.671875 931.109375 C 1046.617188 933.480469 1048.503906 935.898438 1050.332031 938.363281 C 1052.160156 940.824219 1053.925781 943.332031 1055.632812 945.882812 C 1057.335938 948.433594 1058.976562 951.023438 1060.554688 953.652344 C 1062.132812 956.285156 1063.644531 958.953125 1065.09375 961.65625 C 1066.539062 964.359375 1067.921875 967.101562 1069.234375 969.871094 C 1070.546875 972.644531 1071.792969 975.449219 1072.96875 978.28125 C 1074.144531 981.113281 1075.25 983.976562 1076.285156 986.863281 C 1077.320312 989.75 1078.28125 992.660156 1079.175781 995.597656 C 1080.066406 998.53125 1080.886719 1001.484375 1081.636719 1004.460938 C 1082.382812 1007.4375 1083.058594 1010.425781 1083.660156 1013.4375 C 1084.261719 1016.445312 1084.789062 1019.464844 1085.242188 1022.5 C 1085.691406 1025.53125 1086.070312 1028.574219 1086.375 1031.628906 C 1086.679688 1034.679688 1086.910156 1037.738281 1087.0625 1040.804688 C 1087.214844 1043.867188 1087.296875 1046.933594 1087.296875 1050 L 1087.703125 1124.816406 C 1087.699219 1126.046875 1087.636719 1127.273438 1087.515625 1128.496094 C 1087.394531 1129.722656 1087.214844 1130.9375 1086.972656 1132.144531 C 1086.734375 1133.347656 1086.433594 1134.539062 1086.078125 1135.71875 C 1085.71875 1136.894531 1085.308594 1138.050781 1084.835938 1139.1875 C 1084.367188 1140.324219 1083.84375 1141.433594 1083.265625 1142.519531 C 1082.683594 1143.605469 1082.054688 1144.660156 1081.375 1145.683594 C 1080.691406 1146.707031 1079.960938 1147.695312 1079.183594 1148.648438 C 1078.40625 1149.601562 1077.582031 1150.511719 1076.714844 1151.382812 C 1075.847656 1152.253906 1074.9375 1153.082031 1073.988281 1153.867188 C 1073.042969 1154.648438 1072.058594 1155.382812 1071.039062 1156.070312 C 1070.015625 1156.757812 1068.964844 1157.390625 1067.882812 1157.976562 C 1066.800781 1158.558594 1065.691406 1159.089844 1064.558594 1159.566406 C 1063.421875 1160.042969 1062.269531 1160.460938 1061.09375 1160.824219 C 1059.917969 1161.1875 1058.730469 1161.488281 1057.523438 1161.738281 C 1056.320312 1161.984375 1055.105469 1162.167969 1053.882812 1162.296875 C 1052.65625 1162.425781 1051.429688 1162.492188 1050.203125 1162.5 Z M 1050.203125 1162.5 " fill-opacity="1" fill-rule="nonzero"/></svg>